<?xml version="1.0" standalone="yes"?>
<svg xmlns="http://www.w3.org/2000/svg" width="500" height="500">
<path style="fill:#aa464b; stroke:none;" d="M0 0L0 500L500 500L500 0L0 0z"/>
<path style="fill:#66595a; stroke:none;" d="M211.667 105.333L212.333 105.667L211.667 105.333M214 105L215 106L214 105M201 106L201 107L204 107L201 106z"/>
<path style="fill:#180b09; stroke:none;" d="M192 196C185.673 199.89 174.063 206.154 172.333 213.999C170.999 220.053 176.795 223.569 181 226.573C192.144 234.532 205.306 238.715 219 238.985C235.745 239.314 247.661 232.992 262 225.542C270.251 221.256 278.624 219.98 285.91 213.535C300.631 200.513 302.528 177.71 293.737 161C288.802 151.62 279.913 144.967 270 141.545C266.348 140.284 260.56 141.023 257.649 138.397C253.881 134.997 252.345 128.169 249.239 124C242.278 114.656 231.363 108.661 220 106.616C167.28 97.1276 142.228 174.525 192 196z"/>
<path style="fill:#66595a; stroke:none;" d="M219.667 106.333L220.333 106.667L219.667 106.333M197.667 107.333L198.333 107.667L197.667 107.333M224 107L225 108L224 107M195 108L196 109L195 108M227.667 108.333L228.333 108.667L227.667 108.333M192 109L193 110L192 109M230 109L231 110L230 109M191 110L192 111L191 110M211.667 110.333L212.333 110.667L211.667 110.333z"/>
<path style="fill:#aa464b; stroke:none;" d="M240 120C234.455 116.925 219.279 106.362 212.604 111.218C207.235 115.125 215.904 134.696 220.329 137.248C225.862 140.441 237.969 124.356 240 120M184 120C186.607 129.289 198.966 138.567 206 144.941C209.511 148.122 214.606 149.732 216.839 143.981C218.428 139.887 213.697 135.322 211.901 132C208.379 125.483 207.02 118.325 207 111C197.959 111.394 191.533 115.448 184 120z"/>
<path style="fill:#66595a; stroke:none;" d="M221 111L222 112L221 111M234 111L235 112L234 111M187 112L188 113L187 112M236 112L237 113L236 112M237 113L238 114L237 113M184 114L185 115L184 114M191 115L192 116L191 115M240 115L241 116L240 115M181 116L182 117L181 116M180 117L181 118L180 117M179 118L180 119L179 118M185 119L186 120L185 119M245 119L246 120L245 119M177 120L178 121L177 120M246 120L247 121L246 120M176 121L177 122L176 121M183 121L184 122L183 121z"/>
<path style="fill:#f9b45c; stroke:none;" d="M233 121L234 122L233 121z"/>
<path style="fill:#66595a; stroke:none;" d="M175 122L176 123L175 122M174 123L175 124L174 123M173 124L174 125L173 124M249 124L250 125L249 124z"/>
<path style="fill:#aa464b; stroke:none;" d="M179 125C173.969 132.086 170.189 139.146 170 148C177.199 148.31 184.56 150.088 191 153.374C194.078 154.945 198.287 159.447 201.995 158.542C207.991 157.081 207.069 151.503 203.937 148C197.141 140.4 188.272 129.324 179 125M242 125C238.547 128.96 226.421 137.252 227.037 142.895C227.908 150.87 248.008 140.768 252 139C250.337 133.24 247.533 127.704 242 125z"/>
<path style="fill:#66595a; stroke:none;" d="M172 126L173 127L172 126M240 127L241 128L240 127M170 129L171 130L170 129M254 132L255 133L254 132M168 133L169 134L168 133M232 135L233 136L232 135M255 135L256 136L255 135M231 136L232 137L231 136M166 138L167 139L166 138M251 139L252 140L251 139M257 139L257 140L263 140L257 139M266 140L267 141L266 140M226 141L227 142L226 141M270 141L271 142L270 141M218 142L219 143L218 142M225 142L226 143L225 142M241 142L242 143L241 142M274 143L275 144L274 143M278 145L279 146L278 145M221 146L222 147L221 146z"/>
<path style="fill:#aa464b; stroke:none;" d="M228 150C213.973 140.709 215.908 164.108 225.147 153.985C226.263 152.763 227.091 151.37 228 150z"/>
<path style="fill:#66595a; stroke:none;" d="M233 146L234 147L233 146M280 146L281 147L280 146M240 147L241 148L240 147M164 148L164 159L165 159L164 148z"/>
<path style="fill:#f9b45c; stroke:none;" d="M239 148L240 149L239 148z"/>
<path style="fill:#f5eceb; stroke:none;" d="M240 148L227 158L227 159C230.228 162.938 231.786 169.685 236.214 172.29C243.879 176.799 256.352 169.602 253.682 160.184C252.261 155.171 243.842 151.322 240 148z"/>
<path style="fill:#66595a; stroke:none;" d="M272 148L273 149L272 148z"/>
<path style="fill:#f5eceb; stroke:none;" d="M273 148C269.832 150.909 266.39 153.317 263.059 156.015C255.05 162.502 261.288 173.931 270.996 173.653C277.688 173.461 283.143 159.721 280.788 154.104C279.508 151.052 275.725 149.459 273 148z"/>
<path style="fill:#66595a; stroke:none;" d="M274 148L275 149L274 148M211 149L212 150L211 149M237 149L238 150L237 149M241 149L242 150L241 149z"/>
<path style="fill:#f9b45c; stroke:none;" d="M275 149L276 150L275 149z"/>
<path style="fill:#66595a; stroke:none;" d="M276 149L277 150L276 149M235 150L236 151L235 150M242 150L243 151L242 150M270 150L271 151L270 150z"/>
<path style="fill:#f9b45c; stroke:none;" d="M277 150L278 151L277 150M234 151L235 152L234 151M243 151L244 152L243 151z"/>
<path style="fill:#66595a; stroke:none;" d="M244 151L245 152L244 151M269 151L270 152L269 151M279 151L280 152L279 151M286 151L287 152L286 151z"/>
<path style="fill:#aa464b; stroke:none;" d="M169 152C169.016 157.958 171.322 179.793 180.093 179.793C185.834 179.793 194.157 167.842 198 164C191.144 155.122 179.476 153.325 169 152z"/>
<path style="fill:#66595a; stroke:none;" d="M172 152L173 153L172 152M215.333 152.667L215.667 153.333L215.333 152.667M245 152L246 153L245 152M280 152L281 153L280 152M287 152L288 153L287 152z"/>
<path style="fill:#f9b45c; stroke:none;" d="M206 153L207 154L206 153z"/>
<path style="fill:#66595a; stroke:none;" d="M231 153L232 154L231 153z"/>
<path style="fill:#f9b45c; stroke:none;" d="M246 153L247 154L246 153z"/>
<path style="fill:#66595a; stroke:none;" d="M266 153L267 154L266 153z"/>
<path style="fill:#f9b45c; stroke:none;" d="M281 153L282 154L281 153z"/>
<path style="fill:#66595a; stroke:none;" d="M288 153L289 154L288 153M193 154L194 155L193 154M230 154L231 155L230 154M248 154L249 155L248 154z"/>
<path style="fill:#f9b45c; stroke:none;" d="M265 154L266 155L265 154M282 154L283 155L282 154z"/>
<path style="fill:#66595a; stroke:none;" d="M289 154L290 155L289 154M185 155L186 156L185 155M229 155L230 156L229 155M249 155L250 156L249 155M263 155L264 156L263 155M282 155L283 156L282 155M290 155L291 156L290 155M228 156L229 157L228 156M251 156L252 157L251 156M262 156L263 157L262 156z"/>
<path style="fill:#f9b45c; stroke:none;" d="M281 156L282 157L281 156z"/>
<path style="fill:#66595a; stroke:none;" d="M210 157L211 158L210 157z"/>
<path style="fill:#aa464b; stroke:none;" d="M213 177C216.078 172.686 219.99 163.46 214.851 159.376C211.508 156.719 205.638 159.625 206.02 164.039C206.4 168.422 211.127 173.042 213 177z"/>
<path style="fill:#66595a; stroke:none;" d="M227 157L228 158L227 157M252 157L253 158L252 157M260 157L261 158L260 157M281 157L282 158L281 157M220 158L221 159L220 158M259 158L260 159L259 158M200 159L201 160L200 159M208 159L209 160L208 159M227 159L228 160L227 159M254 159L254 168L255 168L254 159z"/>
<path style="fill:#f9b45c; stroke:none;" d="M280 159L281 160L280 159z"/>
<path style="fill:#66595a; stroke:none;" d="M280.333 160.667L280.667 161.333L280.333 160.667M293 160L294 161L293 160z"/>
<path style="fill:#f9b45c; stroke:none;" d="M193 161L194 162L193 161z"/>
<path style="fill:#66595a; stroke:none;" d="M229 161L230 162L229 161z"/>
<path style="fill:#f9b45c; stroke:none;" d="M294 161C297.643 170.367 304.487 171.6 314 173L314 172L294 161z"/>
<path style="fill:#66595a; stroke:none;" d="M294 162L295 163L294 162M165 163L166 164L165 163M230 163L231 164L230 163z"/>
<path style="fill:#f9b45c; stroke:none;" d="M279 163L280 164L279 163z"/>
<path style="fill:#66595a; stroke:none;" d="M205 164L206 165L205 164M279 164L280 165L279 164M295 164L296 165L295 164M231.333 165.667L231.667 166.333L231.333 165.667z"/>
<path style="fill:#f9b45c; stroke:none;" d="M278 166L279 167L278 166z"/>
<path style="fill:#66595a; stroke:none;" d="M166 167L167 168L166 167z"/>
<path style="fill:#aa464b; stroke:none;" d="M212 190C211.56 186.594 210.947 183.237 209.757 180C208.483 176.535 205.897 169.448 201.896 168.346C198.143 167.312 194.614 172.554 192.424 174.83C190.054 177.295 185.376 180.305 184.921 183.961C184.286 189.071 194.054 192.731 198 192.802C202.665 192.885 207.373 190.624 212 190z"/>
<path style="fill:#66595a; stroke:none;" d="M278 167L279 168L278 167M232 168L233 169L232 168z"/>
<path style="fill:#f9b45c; stroke:none;" d="M252 168L253 169L252 168z"/>
<path style="fill:#66595a; stroke:none;" d="M253 168L254 169L253 168M260 168L261 169L260 168M251 169L252 170L251 169M261 169L262 170L261 169M297 169L298 170L297 169M167 170L168 171L167 170z"/>
<path style="fill:#f9b45c; stroke:none;" d="M233 170L234 171L233 170M249 170L250 171L249 170z"/>
<path style="fill:#66595a; stroke:none;" d="M250 170L251 171L250 170M263 170L264 171L263 170z"/>
<path style="fill:#f9b45c; stroke:none;" d="M277 170L278 171L277 170z"/>
<path style="fill:#66595a; stroke:none;" d="M248 171L249 172L248 171M264 171L265 172L264 171M277 171L278 172L277 171M168 172L169 173L168 172M235 172L236 173L235 172z"/>
<path style="fill:#f9b45c; stroke:none;" d="M236 172L237 173L236 172M246 172L247 173L246 172z"/>
<path style="fill:#66595a; stroke:none;" d="M247 172L248 173L247 172M266 172L267 173L266 172M275 172L276 173L275 172M298.333 172.667L298.667 173.333L298.333 172.667M206 173L207 174L206 173M211 173L212 174L211 173M238 173L239 174L238 173M245 173L246 174L245 173M273 173L274 174L273 173z"/>
<path style="fill:#f9b45c; stroke:none;" d="M314 173L315 174L314 173z"/>
<path style="fill:#66595a; stroke:none;" d="M169 174L170 175L169 174M240.667 174.333L241.333 174.667L240.667 174.333z"/>
<path style="fill:#f9b45c; stroke:none;" d="M243 174L244 175L243 174z"/>
<path style="fill:#66595a; stroke:none;" d="M244 174L245 175L244 174M269 174L270 175L269 174z"/>
<path style="fill:#f9b45c; stroke:none;" d="M270 174L271 175L270 174z"/>
<path style="fill:#66595a; stroke:none;" d="M271 174L272 175L271 174M214.333 175.667L214.667 176.333L214.333 175.667M170 176L171 177L170 176M191 176L192 177L191 176z"/>
<path style="fill:#f9b45c; stroke:none;" d="M232 176L230 179L232 176z"/>
<path style="fill:#66595a; stroke:none;" d="M233.667 176.333L234.333 176.667L233.667 176.333M277 176L278 177L277 176z"/>
<path style="fill:#f9b45c; stroke:none;" d="M278.667 176.333L279.333 176.667L278.667 176.333M327 179L327 180C350.571 180.195 353.243 199.93 370 210.891C379.807 217.306 393.782 216.715 401 207C393.406 208.736 386.124 210.422 379 206.005C361.43 195.114 353.575 165.663 327 179z"/>
<path style="fill:#66595a; stroke:none;" d="M213 177L214 178L213 177z"/>
<path style="fill:#f5eceb; stroke:none;" d="M219 189L245 194C243.985 189.572 243.155 182.841 239.581 179.703C232.882 173.82 222.725 183.526 219 189z"/>
<path style="fill:#f9b45c; stroke:none;" d="M235 177L236 178L235 177z"/>
<path style="fill:#66595a; stroke:none;" d="M236 177L237 178L236 177M275 177L276 178L275 177z"/>
<path style="fill:#f9b45c; stroke:none;" d="M276 177L277 178L276 177z"/>
<path style="fill:#f5eceb; stroke:none;" d="M291 199L294 185C288.849 183.048 282.816 176.268 277.019 177.708C270.737 179.267 266.535 192.125 272.149 196.258C276.931 199.778 285.353 197.656 291 199z"/>
<path style="fill:#66595a; stroke:none;" d="M281 177L282 178L281 177M238.667 178.333L239.333 178.667L238.667 178.333M273 178L274 179L273 178z"/>
<path style="fill:#f9b45c; stroke:none;" d="M274 178L275 179L274 178M282 178L283 179L282 178M240 179L241 180L240 179M272 179L273 180L272 179z"/>
<path style="fill:#66595a; stroke:none;" d="M284 179L285 180L284 179M299 179L300 180L299 179z"/>
<path style="fill:#f9b45c; stroke:none;" d="M228 180L229 181L228 180z"/>
<path style="fill:#66595a; stroke:none;" d="M241 180L242 181L241 180z"/>
<path style="fill:#f9b45c; stroke:none;" d="M285 180L286 181L285 180z"/>
<path style="fill:#66595a; stroke:none;" d="M173 181L174 182L173 181z"/>
<path style="fill:#f9b45c; stroke:none;" d="M241 181L242 182L241 181z"/>
<path style="fill:#66595a; stroke:none;" d="M271 181L272 182L271 181M287 181L288 182L287 181M174 182L175 183L174 182z"/>
<path style="fill:#f9b45c; stroke:none;" d="M226 182L227 183L226 182M271 182L272 183L271 182z"/>
<path style="fill:#66595a; stroke:none;" d="M288 182L289 183L288 182M175 183L176 184L175 183M242 183L243 184L242 183M290 183L291 184L290 183M183 184L184 185L183 184z"/>
<path style="fill:#f9b45c; stroke:none;" d="M242 184L243 185L242 184z"/>
<path style="fill:#66595a; stroke:none;" d="M270.333 184.667L270.667 185.333L270.333 184.667z"/>
<path style="fill:#f9b45c; stroke:none;" d="M291 184L292 185L291 184z"/>
<path style="fill:#66595a; stroke:none;" d="M292.667 184.333L293.333 184.667L292.667 184.333z"/>
<path style="fill:#f9b45c; stroke:none;" d="M294 184L294 187L295 187L294 184z"/>
<path style="fill:#66595a; stroke:none;" d="M218.667 186.333L219.333 186.667L218.667 186.333M221 186L222 187L221 186M243.333 186.667L243.667 187.333L243.333 186.667z"/>
<path style="fill:#f9b45c; stroke:none;" d="M270 186L271 187L270 186z"/>
<path style="fill:#66595a; stroke:none;" d="M299 186L300 187L299 186M294.333 187.667L294.667 188.333L294.333 187.667z"/>
<path style="fill:#f9b45c; stroke:none;" d="M299 190L300 192L295 204L283 218L280 220C275.122 219.963 264.857 222.905 262 227L246 235C258.939 239.846 271.788 232.445 285 233.039C305.06 233.942 323.782 256.986 342 235C334.089 235.34 325.982 237.834 319.108 232.362C311.031 225.931 315.244 214.64 325 213.218C335.183 211.733 344.39 219.599 353 223.68C371.269 232.34 402.578 235.334 413 213C396.665 222.058 377.66 228.117 362.015 213.826C353.533 206.08 348.788 194.456 338 189.328C328.162 184.652 309.206 186.983 299 190M243 188L244 189L243 188z"/>
<path style="fill:#66595a; stroke:none;" d="M269 188L270 189L269 188M224 189L224 190L229 190L224 189z"/>
<path style="fill:#f9b45c; stroke:none;" d="M229 189L230 190L229 189M269 189L270 190L269 189z"/>
<path style="fill:#66595a; stroke:none;" d="M182 190L183 191L182 190M233 190L234 191L233 190z"/>
<path style="fill:#f9b45c; stroke:none;" d="M234 190L235 191L234 190z"/>
<path style="fill:#66595a; stroke:none;" d="M244 190L245 191L244 190z"/>
<path style="fill:#f9b45c; stroke:none;" d="M293.333 190.667L293.667 191.333L293.333 190.667z"/>
<path style="fill:#66595a; stroke:none;" d="M298.333 190.667L298.667 191.333L298.333 190.667M183 191L184 192L183 191M236.667 191.333L237.333 191.667L236.667 191.333z"/>
<path style="fill:#f9b45c; stroke:none;" d="M238 191L239 192L238 191M244 191L245 192L244 191z"/>
<path style="fill:#66595a; stroke:none;" d="M268.333 191.667L268.667 192.333L268.333 191.667z"/>
<path style="fill:#f5eceb; stroke:none;" d="M299 191L300 192L299 191z"/>
<path style="fill:#66595a; stroke:none;" d="M185 192L186 193L185 192M240 192L241 193L240 192z"/>
<path style="fill:#f9b45c; stroke:none;" d="M241 192L242 193L241 192z"/>
<path style="fill:#66595a; stroke:none;" d="M293.333 192.667L293.667 193.333L293.333 192.667M197 193L198 194L197 193M219 193L219 194L224 194L219 193M243 193L244 194L243 193M245 193L246 194L245 193M188 194L189 195L188 194z"/>
<path style="fill:#aa464b; stroke:none;" d="M210 194L210 195L213 195L210 194z"/>
<path style="fill:#f9b45c; stroke:none;" d="M176 215L176 216C202.486 241.276 237.407 237.436 265 217C262.499 210.223 255.045 205.038 249 201.454C223.758 186.486 195.554 195.608 176 215z"/>
<path style="fill:#aa464b; stroke:none;" d="M229.667 194.333L230.333 194.667L229.667 194.333z"/>
<path style="fill:#66595a; stroke:none;" d="M231 194L232 195L231 194M297.333 194.667L297.667 195.333L297.333 194.667M190 195L190 197L192 197L190 195z"/>
<path style="fill:#aa464b; stroke:none;" d="M206.667 195.333L207.333 195.667L206.667 195.333M233.667 195.333L234.333 195.667L233.667 195.333z"/>
<path style="fill:#66595a; stroke:none;" d="M235 195L236 196L235 195M270 195L271 196L270 195M292 195L293 196L292 195M202.667 196.333L203.333 196.667L202.667 196.333z"/>
<path style="fill:#aa464b; stroke:none;" d="M238 196L239 197L238 196z"/>
<path style="fill:#66595a; stroke:none;" d="M249 196L250 197L249 196z"/>
<path style="fill:#f5eceb; stroke:none;" d="M250 196L250 197L266 208C271.958 195.135 259.284 196 250 196z"/>
<path style="fill:#66595a; stroke:none;" d="M265 196L266 197L265 196M189 197L190 198L189 197M199.667 197.333L200.333 197.667L199.667 197.333z"/>
<path style="fill:#aa464b; stroke:none;" d="M201 197L202 198L201 197M240 197L241 198L240 197z"/>
<path style="fill:#66595a; stroke:none;" d="M241 197L242 198L241 197M251 197L252 198L251 197M266 197L267 198L266 197M272 197L273 198L272 197z"/>
<path style="fill:#f9b45c; stroke:none;" d="M273 197L274 198L273 197M291 197L292 198L291 197z"/>
<path style="fill:#66595a; stroke:none;" d="M296 197L297 198L296 197z"/>
<path style="fill:#aa464b; stroke:none;" d="M198 198L199 199L198 198z"/>
<path style="fill:#66595a; stroke:none;" d="M243 198L244 199L243 198M252 198L253 199L252 198z"/>
<path style="fill:#f9b45c; stroke:none;" d="M253 198L254 199L253 198z"/>
<path style="fill:#66595a; stroke:none;" d="M267 198L268 199L267 198M289 198L290 199L289 198M291 198L292 199L291 198M186 199L187 200L186 199z"/>
<path style="fill:#aa464b; stroke:none;" d="M196 199L197 200L196 199z"/>
<path style="fill:#66595a; stroke:none;" d="M245 199L246 200L245 199M254 199L255 200L254 199M268 199L269 200L268 199M290 199L291 200L290 199M295.333 199.667L295.667 200.333L295.333 199.667z"/>
<path style="fill:#f5eceb; stroke:none;" d="M296 199L297 200L296 199z"/>
<path style="fill:#aa464b; stroke:none;" d="M194 200L195 201L194 200z"/>
<path style="fill:#66595a; stroke:none;" d="M247 200L248 201L247 200M269.333 200.667L269.667 201.333L269.333 200.667M183 201L184 202L183 201z"/>
<path style="fill:#aa464b; stroke:none;" d="M192.667 201.333L193.333 201.667L192.667 201.333z"/>
<path style="fill:#66595a; stroke:none;" d="M249 201L250 202L249 201M257 201L258 202L257 201M182 202L183 203L182 202z"/>
<path style="fill:#aa464b; stroke:none;" d="M190 202L191 203L190 202M250 202L251 203L250 202z"/>
<path style="fill:#66595a; stroke:none;" d="M258 202L259 203L258 202z"/>
<path style="fill:#f9b45c; stroke:none;" d="M268 202L269 203L268 202z"/>
<path style="fill:#66595a; stroke:none;" d="M179 205L182 203L179 205z"/>
<path style="fill:#aa464b; stroke:none;" d="M189 203L190 204L189 203z"/>
<path style="fill:#66595a; stroke:none;" d="M252 203L253 204L252 203M259 203L260 204L259 203M268 203L269 204L268 203z"/>
<path style="fill:#f5eceb; stroke:none;" d="M294 203L295 204L294 203z"/>
<path style="fill:#66595a; stroke:none;" d="M187 204L188 205L187 204z"/>
<path style="fill:#aa464b; stroke:none;" d="M253 204L254 205L253 204M186 205L187 206L186 205z"/>
<path style="fill:#f9b45c; stroke:none;" d="M262 205L263 206L262 205z"/>
<path style="fill:#66595a; stroke:none;" d="M267 205L268 206L267 205M292 205L293 206L292 205z"/>
<path style="fill:#f5eceb; stroke:none;" d="M366 205L367 206L366 205z"/>
<path style="fill:#aa464b; stroke:none;" d="M185 206L186 207L185 206z"/>
<path style="fill:#66595a; stroke:none;" d="M256 206L257 207L256 206z"/>
<path style="fill:#f9b45c; stroke:none;" d="M266 206L267 207L266 206z"/>
<path style="fill:#aa464b; stroke:none;" d="M184 207L185 208L184 207M199 207L200 208L199 207z"/>
<path style="fill:#180b09; stroke:none;" d="M200 207L198 212L194 212L199 220L202 220L207 216L211 220L217 217L216 219L220 220L225 216C226.277 219.844 228.723 219.844 230 216L234 216C235.926 221.791 239.6 217.185 243 215L243 213L237 207L236 207L234 212L230 212L228 207L227 207L225 212L219 207L218 207C214.903 211.468 213.097 211.468 210 207L207 212L203 212L200 207z"/>
<path style="fill:#aa464b; stroke:none;" d="M201 207L202 208L201 207M208 207L209 208L208 207M210 207L211 208L210 207M216.667 207.333L217.333 207.667L216.667 207.333M219 207L221 209L221 207L219 207M225.667 207.333L226.333 207.667L225.667 207.333M228 207L229 208L228 207M235 207L236 208L235 207M237 207L238 208L237 207z"/>
<path style="fill:#66595a; stroke:none;" d="M257 207L258 208L257 207z"/>
<path style="fill:#f9b45c; stroke:none;" d="M264 207L265 208L264 207z"/>
<path style="fill:#66595a; stroke:none;" d="M266 207L267 208L266 207M291 207L292 208L291 207M175 208L176 209L175 208M198 208L199 209L198 208M202 208L203 209L202 208z"/>
<path style="fill:#aa464b; stroke:none;" d="M207 208L208 209L207 208z"/>
<path style="fill:#66595a; stroke:none;" d="M211.333 208.667L211.667 209.333L211.333 208.667M216.333 208.667L216.667 209.333L216.333 208.667M225 208L226 209L225 208M229 208L230 209L229 208M234 208L235 209L234 208z"/>
<path style="fill:#aa464b; stroke:none;" d="M238 208L239 209L238 208M258 208L259 209L258 208z"/>
<path style="fill:#f9b45c; stroke:none;" d="M265 208L266 209L265 208z"/>
<path style="fill:#66595a; stroke:none;" d="M290 208L291 209L290 208M174 209L175 210L174 209M181 209L182 210L181 209M220.333 209.667L220.667 210.333L220.333 209.667z"/>
<path style="fill:#aa464b; stroke:none;" d="M259 209L260 210L259 209z"/>
<path style="fill:#66595a; stroke:none;" d="M289 209L290 210L289 209z"/>
<path style="fill:#f5eceb; stroke:none;" d="M291 209L292 210L291 209z"/>
<path style="fill:#66595a; stroke:none;" d="M173 210L174 211L173 210M180 210L181 211L180 210z"/>
<path style="fill:#aa464b; stroke:none;" d="M260 210L261 211L260 210z"/>
<path style="fill:#66595a; stroke:none;" d="M172 211L173 212L172 211M179 211L180 212L179 211z"/>
<path style="fill:#aa464b; stroke:none;" d="M195.667 211.333L196.333 211.667L195.667 211.333z"/>
<path style="fill:#66595a; stroke:none;" d="M197 211L198 212L197 211z"/>
<path style="fill:#aa464b; stroke:none;" d="M203 211L203 212L206 212L203 211z"/>
<path style="fill:#66595a; stroke:none;" d="M206 211L207 212L206 211z"/>
<path style="fill:#aa464b; stroke:none;" d="M212 211L212 212L216 212L212 211z"/>
<path style="fill:#66595a; stroke:none;" d="M221 211L222 212L221 211z"/>
<path style="fill:#aa464b; stroke:none;" d="M222 211L222 212L225 212L222 211z"/>
<path style="fill:#66595a; stroke:none;" d="M230 211L231 212L230 211z"/>
<path style="fill:#aa464b; stroke:none;" d="M231.667 211.333L232.333 211.667L231.667 211.333z"/>
<path style="fill:#66595a; stroke:none;" d="M233 211L234 212L233 211M239 211L240 212L239 211z"/>
<path style="fill:#aa464b; stroke:none;" d="M240.667 211.333L241.333 211.667L240.667 211.333M261 211L262 212L261 211z"/>
<path style="fill:#f5eceb; stroke:none;" d="M289 211L290 212L289 211z"/>
<path style="fill:#66595a; stroke:none;" d="M178 212L179 213L178 212M242 212L243 213L242 212z"/>
<path style="fill:#aa464b; stroke:none;" d="M262 212L263 213L262 212z"/>
<path style="fill:#f9b45c; stroke:none;" d="M413 212L414 213L413 212z"/>
<path style="fill:#66595a; stroke:none;" d="M177 213L178 214L177 213z"/>
<path style="fill:#aa464b; stroke:none;" d="M193.333 213.667L193.667 214.333L193.333 213.667z"/>
<path style="fill:#66595a; stroke:none;" d="M171 214L171 218L172 218L171 214M176 214L177 215L176 214z"/>
<path style="fill:#aa464b; stroke:none;" d="M243 214L244 215L243 214M264 214L265 215L264 214z"/>
<path style="fill:#66595a; stroke:none;" d="M284 214L285 215L284 214z"/>
<path style="fill:#aa464b; stroke:none;" d="M194 215L195 216L194 215M242 215L243 216L242 215z"/>
<path style="fill:#66595a; stroke:none;" d="M265 215L266 216L265 215M283 215L284 216L283 215z"/>
<path style="fill:#aa464b; stroke:none;" d="M176 216L177 217L176 216M196 216L197 217L196 216M205 216L206 217L205 216M213.667 216.333L214.333 216.667L213.667 216.333M230 216L231 217L230 216M233 216L234 217L233 216z"/>
<path style="fill:#66595a; stroke:none;" d="M282 216L283 217L282 216z"/>
<path style="fill:#f5eceb; stroke:none;" d="M284 216L285 217L284 216z"/>
<path style="fill:#aa464b; stroke:none;" d="M177 217L178 218L177 217z"/>
<path style="fill:#66595a; stroke:none;" d="M216 217L217 218L216 217M220 217L221 218L220 217M264 217L265 218L264 217M280 217L281 218L280 217z"/>
<path style="fill:#f5eceb; stroke:none;" d="M282 217L283 218L282 217z"/>
<path style="fill:#aa464b; stroke:none;" d="M178 218L179 219L178 218z"/>
<path style="fill:#66595a; stroke:none;" d="M198 218L199 219L198 218M202 218L203 219L202 218M211 218L212 219L211 218z"/>
<path style="fill:#aa464b; stroke:none;" d="M220.333 218.667L220.667 219.333L220.333 218.667M262 218L263 219L262 218z"/>
<path style="fill:#66595a; stroke:none;" d="M263 218L264 219L263 218M279 218L280 219L279 218M172 219L173 220L172 219z"/>
<path style="fill:#aa464b; stroke:none;" d="M179 219L180 220L179 219M198 219L199 220L198 219M202 219L203 220L202 219M207 219L208 220L207 219M211 219L212 220L211 219M216 219L217 220L216 219M225 219L226 220L225 219M229 219L230 220L229 219M234 219L235 220L234 219M238 219L239 220L238 219M261 219L262 220L261 219z"/>
<path style="fill:#66595a; stroke:none;" d="M277 219L278 220L277 219z"/>
<path style="fill:#f5eceb; stroke:none;" d="M279 219L280 220L279 219z"/>
<path style="fill:#66595a; stroke:none;" d="M180 220L181 221L180 220z"/>
<path style="fill:#aa464b; stroke:none;" d="M199 220L199 221L202 221L199 220M208 220L208 221L211 221L208 220M217 220L217 221L220 221L217 220M226 220L226 221L229 221L226 220M235 220L235 221L238 221L235 220M260 220L261 221L260 220z"/>
<path style="fill:#66595a; stroke:none;" d="M275 220L276 221L275 220M174 221L175 222L174 221z"/>
<path style="fill:#aa464b; stroke:none;" d="M182 221L183 222L182 221z"/>
<path style="fill:#66595a; stroke:none;" d="M259 221L260 222L259 221M273 221L274 222L273 221M175 222L176 223L175 222z"/>
<path style="fill:#aa464b; stroke:none;" d="M183 222L184 223L183 222M257 222L258 223L257 222z"/>
<path style="fill:#66595a; stroke:none;" d="M270.667 222.333L271.333 222.667L270.667 222.333M176 223L177 224L176 223z"/>
<path style="fill:#aa464b; stroke:none;" d="M185 223L186 224L185 223z"/>
<path style="fill:#66595a; stroke:none;" d="M256 223L257 224L256 223M267 223L268 224L267 223M178 224L179 225L178 224z"/>
<path style="fill:#aa464b; stroke:none;" d="M186 224L187 225L186 224M254 224L255 225L254 224z"/>
<path style="fill:#66595a; stroke:none;" d="M263 224L264 225L263 224M179 225L180 226L179 225M187 225L188 226L187 225M253 225L254 226L253 225M261 225L262 226L261 225M189 226L190 227L189 226z"/>
<path style="fill:#aa464b; stroke:none;" d="M251 226L252 227L251 226z"/>
<path style="fill:#f5eceb; stroke:none;" d="M261 226L262 227L261 226z"/>
<path style="fill:#66595a; stroke:none;" d="M182 227L183 228L182 227z"/>
<path style="fill:#aa464b; stroke:none;" d="M191 227L192 228L191 227M249 227L250 228L249 227z"/>
<path style="fill:#66595a; stroke:none;" d="M258 227L259 228L258 227z"/>
<path style="fill:#aa464b; stroke:none;" d="M193.667 228.333L194.333 228.667L193.667 228.333M247 228L248 229L247 228z"/>
<path style="fill:#66595a; stroke:none;" d="M185 229L186 230L185 229M195 229L196 230L195 229z"/>
<path style="fill:#aa464b; stroke:none;" d="M245 229L246 230L245 229z"/>
<path style="fill:#66595a; stroke:none;" d="M255 229L256 230L255 229M197 230L198 231L197 230z"/>
<path style="fill:#aa464b; stroke:none;" d="M198 230L199 231L198 230M242 230L243 231L242 230z"/>
<path style="fill:#66595a; stroke:none;" d="M243 230L244 231L243 230M253 230L254 231L253 230M200 231L201 232L200 231z"/>
<path style="fill:#aa464b; stroke:none;" d="M201 231L202 232L201 231M240 231L241 232L240 231z"/>
<path style="fill:#66595a; stroke:none;" d="M190.667 232.333L191.333 232.667L190.667 232.333z"/>
<path style="fill:#aa464b; stroke:none;" d="M204 232L204 233L207 233L204 232M235 232L236 233L235 232z"/>
<path style="fill:#66595a; stroke:none;" d="M236.667 232.333L237.333 232.667L236.667 232.333M249 232L250 233L249 232z"/>
<path style="fill:#aa464b; stroke:none;" d="M208 233L208 234L212 234L208 233M230.667 233.333L231.333 233.667L230.667 233.333z"/>
<path style="fill:#66595a; stroke:none;" d="M232 233L233 234L232 233M195 234L196 235L195 234M245 234L246 235L245 234z"/>
<path style="fill:#f9b45c; stroke:none;" d="M342 234L343 235L342 234z"/>
<path style="fill:#66595a; stroke:none;" d="M197 235L198 236L197 235M243 235L244 236L243 235M200.667 236.333L201.333 236.667L200.667 236.333M239.667 236.333L240.333 236.667L239.667 236.333M204.667 237.333L205.333 237.667L204.667 237.333M235 237L236 238L235 237M209 238L209 239L214 239L209 238M226.667 238.333L227.333 238.667L226.667 238.333z"/>
<path style="fill:#aa464b; stroke:none;" d="M228 238L229 239L228 238z"/>
<path style="fill:#f9b45c; stroke:none;" d="M228 239C239.025 262.576 267.677 250.136 286 248.174C291.415 247.594 296.637 248.577 302 249C288.399 234.28 266.899 245.642 250 243.826C242.344 243.004 235.622 236.832 228 239z"/>
<path style="fill:#66595a; stroke:none;" d="M100.667 259.333L101.333 259.667L100.667 259.333z"/>
<path style="fill:#f5eceb; stroke:none;" d="M98 260L98 302L118 302L118 295L104 295C104.007 286.102 106.102 284.007 115 284L115 278C106.102 277.993 104.007 275.898 104 267L118 267L118 260L98 260z"/>
<path style="fill:#f9b45c; stroke:none;" d="M118 260L118 267L119 267L118 260M257.667 260.333L258.333 260.667L257.667 260.333z"/>
<path style="fill:#f5eceb; stroke:none;" d="M260 295L259 288L253 288C253 291.273 252.307 295.722 254.179 298.606C257.111 303.123 267.763 303.444 271.258 299.486C280.186 289.376 269.778 278.444 260 277L260 267C264.892 267.373 266.627 269.108 267 274L273 274C273 270.727 273.693 266.278 271.821 263.394C268.616 258.457 258.069 258.924 254.603 263.279C252.003 266.545 252.498 274.029 253.148 277.956C254.352 285.226 264.1 282.195 266.377 288.144C268.215 292.944 263.752 294.714 260 295z"/>
<path style="fill:#f9b45c; stroke:none;" d="M268 260L269 261L268 260z"/>
<path style="fill:#66595a; stroke:none;" d="M270 260L272 262L270 260z"/>
<path style="fill:#f9b45c; stroke:none;" d="M309.667 260.333L310.333 260.667L309.667 260.333z"/>
<path style="fill:#f5eceb; stroke:none;" d="M311.015 260.573C303.974 262.655 305 270.136 305 276C305 287.027 302.347 306.582 319.981 301.566C326.843 299.615 326 291.638 326 286C326.001 275.163 328.387 255.435 311.015 260.573z"/>
<path style="fill:#f9b45c; stroke:none;" d="M320.667 260.333L321.333 260.667L320.667 260.333M385 260L385 261L388 261L385 260z"/>
<path style="fill:#f5eceb; stroke:none;" d="M382 282C390.444 283.953 394.967 285.777 395 295C390.108 294.627 388.373 292.892 388 288L382 288C382 291.362 381.345 295.772 383.179 298.772C386.23 303.761 397.066 303.086 400.397 298.772C402.966 295.443 402.52 288.025 401.852 284.055C400.698 277.195 390.905 279.948 388.623 273.868C386.816 269.056 391.216 267.289 395 267C395.174 272.31 396.69 273.826 402 274C401.999 265.302 393.146 252.292 383.742 262.564C380.049 266.598 382 276.89 382 282z"/>
<path style="fill:#f9b45c; stroke:none;" d="M396.667 260.333L397.333 260.667L396.667 260.333z"/>
<path style="fill:#66595a; stroke:none;" d="M399 260L400 261L399 260z"/>
<path style="fill:#f9b45c; stroke:none;" d="M97 261L97 302L98 302C98 290.304 101.511 271.75 97 261M255 261L256 262L255 261M270 261L271 262L270 261M307 261L308 262L307 261M323 261L324 262L323 261M399 261L400 262L399 261M254 262L255 263L254 262M306 262L307 263L306 262M324 262L325 263L324 262M400 262L401 263L400 262M253 263L254 264L253 263M272 263L273 264L272 263M382 263L383 264L382 263z"/>
<path style="fill:#66595a; stroke:none;" d="M289 264L290 265L289 264z"/>
<path style="fill:#f9b45c; stroke:none;" d="M305 264L306 265L305 264M325 264L325 267L326 267L325 264M124 265L124 266L130 266L124 265M139 285L140 285L140 266L146 266C136.439 262.129 138.39 279.452 139 285M150 268L151 268C155.426 264.647 166.574 264.647 171 268C172.232 264.331 151.214 262.334 150 268M175 301L176 301L176 266L183 267C179.897 263.453 175.472 265.476 175.059 270.019C174.134 280.176 175 290.799 175 301M187 265L187 266L208 266L187 265M210 265L210 266L214 266L210 265z"/>
<path style="fill:#f5eceb; stroke:none;" d="M210 266L220 302L226 302L236 266C227.743 266.098 225.766 271.565 224 279L222 279C220.289 271.795 218.32 265.216 210 266z"/>
<path style="fill:#f9b45c; stroke:none;" d="M216 265L217 266L216 265M229 265L229 266L236 266L229 265M273 265L273 274L274 274L273 265M279 265L279 266L289 266L279 265z"/>
<path style="fill:#f5eceb; stroke:none;" d="M279 266L279 302L285 302L285 291C296.13 290.908 308.166 278.273 297.297 267.728C293.009 263.567 284.353 265.996 279 266z"/>
<path style="fill:#f9b45c; stroke:none;" d="M292 265L292 266L295 266L292 265M331 265L331 266L347 266L331 265M356 267L377 266C372.508 264.115 359.349 263.168 356 267M381 265L381 281L382 281L381 265z"/>
<path style="fill:#f5eceb; stroke:none;" d="M124 266L124 302L130 302L130 282L131 282C133.925 289.025 137.417 301.337 146 302L146 266L140 266L140 285C135.235 278.307 133.41 266.313 124 266M157 272C157 280.428 152.623 301.622 164 302L164 272L171 272L171 266C165.613 266 158.393 264.722 153.232 266.318C146.917 268.271 153.919 271.898 157 272M176 266L176 302C187.176 301.633 187.176 266.367 176 266M187 266L187 272L194 272L194 302C205.435 301.625 201 280.557 201 272L208 272L208 266L187 266z"/>
<path style="fill:#f9b45c; stroke:none;" d="M217 266L218 267L217 266M296 266L297 267L296 266z"/>
<path style="fill:#f5eceb; stroke:none;" d="M331 266C331 275.086 326.154 301.611 338 302L338 291L343 291L345 302L351 302C350.925 298.376 349.666 294.57 349.958 291C350.469 284.76 356.019 271.628 348.721 267.028C344.473 264.349 335.875 266 331 266M363 272C363 280.512 358.598 301.626 370 302L370 272L377 272L377 266C371.545 266 364.392 264.761 359.149 266.318C352.588 268.266 359.831 271.896 363 272z"/>
<path style="fill:#f9b45c; stroke:none;" d="M104 267L104 277L105 277L104 267z"/>
<path style="fill:#66595a; stroke:none;" d="M105 267L105 268L111 268L105 267z"/>
<path style="fill:#f9b45c; stroke:none;" d="M130 267L131 268L130 267M252 267L252 280L253 280L252 267M260 267L261 268L260 267z"/>
<path style="fill:#66595a; stroke:none;" d="M261 267L261 268L265 268L261 267z"/>
<path style="fill:#f9b45c; stroke:none;" d="M265 267L266 268L265 267M312 267L313 268L312 267z"/>
<path style="fill:#66595a; stroke:none;" d="M313 267L314 268L313 267z"/>
<path style="fill:#aa464b; stroke:none;" d="M312 294L319 294C318.732 289.478 321.761 268.367 315.91 267.662C309.297 266.865 312.256 289.675 312 294z"/>
<path style="fill:#66595a; stroke:none;" d="M317 267L318 268L317 267z"/>
<path style="fill:#f9b45c; stroke:none;" d="M318 267L319 268L318 267M350 267L351 268L350 267z"/>
<path style="fill:#66595a; stroke:none;" d="M355 267L355 270L356 270L355 267z"/>
<path style="fill:#f9b45c; stroke:none;" d="M377 267L377 271L378 271L377 267M389 267L390 268L389 267z"/>
<path style="fill:#66595a; stroke:none;" d="M390 267L390 268L394 268L390 267z"/>
<path style="fill:#f9b45c; stroke:none;" d="M394 267L395 268L394 267z"/>
<path style="fill:#66595a; stroke:none;" d="M172 268L173 269L172 268z"/>
<path style="fill:#f9b45c; stroke:none;" d="M235 268L236 269L235 268M266 268L266 274L267 274L266 268M298 268L299 269L298 268M388 268L388 276L389 276L388 268M402 268L402 274L403 274L402 268M131 269L132 270L131 269M218 269L219 270L218 269M227 269L228 270L227 269M351.333 269.667L351.667 270.333L351.333 269.667M150.333 270.667L150.667 271.333L150.333 270.667M211 270L212 271L211 270M234 270L235 271L234 270M299.333 270.667L299.667 271.333L299.333 270.667M132 271L133 272L132 271M219 271L220 272L219 271M226 271L227 272L226 271M356 271L357 272L356 271M153 272L154 273L153 272M155 272L156 273L155 272M164 272L164 302L165 302L164 272M168.667 272.333L169.333 272.667L168.667 272.333M189 272L190 273L189 272M193.333 272.667L193.667 273.333L193.333 272.667M202 272L203 273L202 272M204.667 272.333L205.333 272.667L204.667 272.333M212 272L213 273L212 272M233 272L234 273L233 272z"/>
<path style="fill:#aa464b; stroke:none;" d="M286 272L286 284L292 284L293 273L286 272M338 272L338 284L345 283C344.999 276.612 345.473 272.245 338 272z"/>
<path style="fill:#f9b45c; stroke:none;" d="M344 272L345 273L344 272M358 272L358 273L362 273L358 272M370 272L370 302L371 302L370 272M372 272L372 273L376 273L372 272M133 273L134 274L133 273M220 273L221 274L220 273M225 273L226 274L225 273M395 273L396 274L395 273M213 274L214 275L213 274M232 274L233 275L232 274z"/>
<path style="fill:#66595a; stroke:none;" d="M292.333 274.667L292.667 275.333L292.333 274.667z"/>
<path style="fill:#f9b45c; stroke:none;" d="M134 275L135 276L134 275M193.333 275.667L193.667 276.333L193.333 275.667M221 276L222 277L221 276M224 276L225 277L224 276M260 276L261 277L260 276M389 276L390 277L389 276M105 277L105 278L115 278L105 277M135 277L136 278L135 277M214 277L215 278L214 277M231 277L232 278L231 277M263 277L264 278L263 277M392 277L393 278L392 277M115 278L115 284L116 284L115 278M193 278L194 279L193 278M222.667 278.333L223.333 278.667L222.667 278.333M266 278L267 279L266 278M394.667 278.333L395.333 278.667L394.667 278.333M136 279L137 280L136 279M215 279L216 280L215 279M230 279L231 280L230 279M269 279L270 280L269 279M285 279L286 280L285 279M398 279L399 280L398 279M193 280L193 294L194 294L193 280M272 280L273 281L272 280M401 280L402 281L401 280M137 281L138 282L137 281M216 281L217 282L216 281M229 281L230 282L229 281M253 281L254 282L253 281M273 281L273 297L274 297L273 281z"/>
<path style="fill:#66595a; stroke:none;" d="M292.333 281.667L292.667 282.333L292.333 281.667z"/>
<path style="fill:#f9b45c; stroke:none;" d="M130 282L130 302L131 302L130 282z"/>
<path style="fill:#66595a; stroke:none;" d="M138 282L139 283L138 282z"/>
<path style="fill:#f9b45c; stroke:none;" d="M255 282L256 283L255 282M384 282L385 283L384 282M402 282L402 295L403 295L402 282M217 283L218 284L217 283M228 283L229 284L228 283M258 283L259 284L258 283z"/>
<path style="fill:#66595a; stroke:none;" d="M288.667 283.333L289.333 283.667L288.667 283.333z"/>
<path style="fill:#f9b45c; stroke:none;" d="M292 283L293 284L292 283z"/>
<path style="fill:#66595a; stroke:none;" d="M342.667 283.333L343.333 283.667L342.667 283.333z"/>
<path style="fill:#f9b45c; stroke:none;" d="M344 283L345 284L344 283M387 283L388 284L387 283M105 284L105 285L115 285L105 284z"/>
<path style="fill:#66595a; stroke:none;" d="M131.333 284.667L131.667 285.333L131.333 284.667z"/>
<path style="fill:#f9b45c; stroke:none;" d="M261 284L262 285L261 284M299.333 284.667L299.667 285.333L299.333 284.667M390 284L391 285L390 284M104 285L104 295L105 295L104 285M132 285L133 286L132 285M264 285L264 286L266 294L267 294L264 285M393 285L394 286L393 285M218 286L219 287L218 286M227 286L228 287L227 286z"/>
<path style="fill:#66595a; stroke:none;" d="M264 286L265 289L266 289L266 286L264 286z"/>
<path style="fill:#f9b45c; stroke:none;" d="M351 286L352 287L351 286z"/>
<path style="fill:#66595a; stroke:none;" d="M394.333 286.667L394.667 287.333L394.333 286.667z"/>
<path style="fill:#f9b45c; stroke:none;" d="M133 287L134 288L133 287M219 288L219 302L220 302L219 288M226 288L226 302L227 302L226 288M259 288L259 291L260 291L259 288M297 288L298 289L297 288M350 288L351 289L350 288M381 288L381 297L382 297L381 288M388 288L388 294L389 294L388 288M134 289L135 290L134 289M252 289L252 296L253 296L252 289M296 289L297 290L296 289M349 289L349 292L350 292L349 289z"/>
<path style="fill:#66595a; stroke:none;" d="M278.333 290.667L278.667 291.333L278.333 290.667z"/>
<path style="fill:#f9b45c; stroke:none;" d="M292 290L292 291L295 291L292 290z"/>
<path style="fill:#66595a; stroke:none;" d="M312.333 290.667L312.667 291.333L312.333 290.667M318.333 290.667L318.667 291.333L318.333 290.667z"/>
<path style="fill:#f9b45c; stroke:none;" d="M135 291L136 292L135 291M285 291L285 295L286 295L285 291M342 291L343 292L342 291z"/>
<path style="fill:#66595a; stroke:none;" d="M201.333 292.667L201.667 293.333L201.333 292.667z"/>
<path style="fill:#f9b45c; stroke:none;" d="M136 293L137 294L136 293z"/>
<path style="fill:#66595a; stroke:none;" d="M105 294L106 295L105 294M107 294L107 295L110 295L107 294M136.333 294.667L136.667 295.333L136.333 294.667z"/>
<path style="fill:#f9b45c; stroke:none;" d="M260 294L261 295L260 294M312 294L313 295L312 294z"/>
<path style="fill:#66595a; stroke:none;" d="M317 294L318 295L317 294z"/>
<path style="fill:#f9b45c; stroke:none;" d="M318 294L319 295L318 294M343.333 294.667L343.667 295.333L343.333 294.667z"/>
<path style="fill:#66595a; stroke:none;" d="M389 294L390 295L389 294z"/>
<path style="fill:#f9b45c; stroke:none;" d="M394 294L395 295L394 294M118 295L118 302L119 302L118 295M137 295L138 296L137 295M350 295L351 296L350 295z"/>
<path style="fill:#66595a; stroke:none;" d="M304 296L305 297L304 296z"/>
<path style="fill:#f9b45c; stroke:none;" d="M325.333 296.667L325.667 297.333L325.333 296.667M363 296L364 297L363 296M138 297L139 298L138 297M146 297L147 298L146 297M305 297L306 298L305 297z"/>
<path style="fill:#66595a; stroke:none;" d="M183 298L184 299L183 298z"/>
<path style="fill:#f9b45c; stroke:none;" d="M193 298L193 301L194 301L193 298z"/>
<path style="fill:#66595a; stroke:none;" d="M201.333 298.667L201.667 299.333L201.333 298.667z"/>
<path style="fill:#f9b45c; stroke:none;" d="M253 298L254 299L253 298M272 298L273 299L272 298M344.333 298.667L344.667 299.333L344.333 298.667M351 298L351 302L352 302L351 298M382 298L383 299L382 298M401 298L402 299L401 298M139 299L140 300L139 299z"/>
<path style="fill:#66595a; stroke:none;" d="M278 299L279 300L278 299z"/>
<path style="fill:#f9b45c; stroke:none;" d="M285 299L285 302L286 302L285 299M306 299L307 300L306 299M324 299L325 300L324 299M400 299L401 300L400 299M157.333 300.667L157.667 301.333L157.333 300.667M255 300L256 301L255 300M271 300L272 301L271 300M307 300L308 301L307 300M323 300L324 301L323 300z"/>
<path style="fill:#66595a; stroke:none;" d="M344 300L345 301L344 300z"/>
<path style="fill:#f9b45c; stroke:none;" d="M383 300L384 301L383 300M399 300L400 301L399 300M140 301L141 302L140 301M182 301L183 302L182 301M200 301L201 302L200 301M256.667 301.333L257.333 301.667L256.667 301.333M268.667 301.333L269.333 301.667L268.667 301.333z"/>
<path style="fill:#66595a; stroke:none;" d="M270.667 301.333L271.333 301.667L270.667 301.333z"/>
<path style="fill:#f9b45c; stroke:none;" d="M309 301L310 302L309 301M321 301L322 302L321 301M331 301L332 302L331 301M363 301L364 302L363 301z"/>
<path style="fill:#66595a; stroke:none;" d="M384 301L385 302L384 301z"/>
<path style="fill:#f9b45c; stroke:none;" d="M385 301L386 302L385 301M397.667 301.333L398.333 301.667L397.667 301.333z"/>
<path style="fill:#66595a; stroke:none;" d="M159 302L160 303L159 302M224 302L225 303L224 302M284 302L285 303L284 302M348.667 302.333L349.333 302.667L348.667 302.333M368 302L369 303L368 302z"/>
</svg>
